<?xml version="1.0" encoding="utf-8"?>
<!-- Generator: Adobe Illustrator 23.0.3, SVG Export Plug-In . SVG Version: 6.00 Build 0)  -->
<svg version="1.1" id="Layer_1" xmlns="http://www.w3.org/2000/svg" xmlns:xlink="http://www.w3.org/1999/xlink" x="0px" y="0px"
	 viewBox="0 0 92.3 87.1" style="enable-background:new 0 0 92.3 87.1;" xml:space="preserve">
<style type="text/css">
	.st0{fill:url(#SVGID_1_);}
	.st1{fill:url(#SVGID_2_);}
	.st2{enable-background:new    ;}
	.st3{fill:#FFFFFF;}
	.st4{opacity:0.13;fill:url(#SVGID_3_);enable-background:new    ;}
</style>
<linearGradient id="SVGID_1_" gradientUnits="userSpaceOnUse" x1="4.4636" y1="1.1771" x2="109.0974" y2="25.395" gradientTransform="matrix(1 0 0 -1 0 87.2756)">
	<stop  offset="0" style="stop-color:#1D71B8"/>
	<stop  offset="1" style="stop-color:#36A9E1"/>
</linearGradient>
<rect y="65.8" class="st0" width="92.3" height="21.3"/>
<linearGradient id="SVGID_2_" gradientUnits="userSpaceOnUse" x1="-5.2462" y1="91.1697" x2="91.7807" y2="22.0866" gradientTransform="matrix(1 0 0 -1 0 87.2756)">
	<stop  offset="0.278" style="stop-color:#000000"/>
	<stop  offset="1" style="stop-color:#575756"/>
</linearGradient>
<rect y="0" class="st1" width="92.3" height="65.4"/>
<g class="st2">
	<path class="st3" d="M14.3,40.8h-4.1l-0.9,3H8.1l3.8-13.1h0.6l3.9,13.1h-1.2L14.3,40.8z M10.5,39.7H14l-1.7-6l0-0.5l0,0.5
		L10.5,39.7z"/>
	<path class="st3" d="M20.6,43.9H20l-3.3-9.3h1.1l2.4,7.1l0,0.5l0-0.5l2.4-7.1h1.1L20.6,43.9z"/>
	<path class="st3" d="M31.2,42.4c-0.1,0.3-0.3,0.6-0.6,0.9c-0.2,0.2-0.5,0.4-0.9,0.6c-0.3,0.1-0.7,0.2-1.1,0.2H28
		c-0.4,0-0.7-0.1-1.1-0.2c-0.3-0.1-0.6-0.3-0.9-0.6c-0.2-0.2-0.4-0.5-0.6-0.9c-0.1-0.3-0.2-0.7-0.2-1.1v-4.2c0-0.4,0.1-0.7,0.2-1.1
		c0.1-0.3,0.3-0.6,0.6-0.9c0.2-0.2,0.5-0.4,0.9-0.6c0.3-0.1,0.7-0.2,1.1-0.2h0.7c0.4,0,0.7,0.1,1.1,0.2c0.3,0.1,0.6,0.3,0.9,0.6
		c0.2,0.2,0.4,0.5,0.6,0.9c0.1,0.3,0.2,0.7,0.2,1.1v2.2h-5.1v2.1c0,0.2,0,0.4,0.1,0.6c0.1,0.2,0.2,0.4,0.3,0.5
		c0.1,0.1,0.3,0.3,0.5,0.3C27.5,43,27.7,43,28,43h0.7c0.2,0,0.4,0,0.6-0.1c0.2-0.1,0.4-0.2,0.5-0.3c0.1-0.1,0.3-0.3,0.3-0.5
		c0.1-0.2,0.1-0.4,0.1-0.6v-0.6l1.1,0.2v0.4C31.5,41.7,31.4,42,31.2,42.4z M30.3,37c0-0.2,0-0.4-0.1-0.6S30,36,29.9,35.9
		c-0.1-0.1-0.3-0.3-0.5-0.3c-0.2-0.1-0.4-0.1-0.6-0.1H28c-0.2,0-0.4,0-0.6,0.1c-0.2,0.1-0.4,0.2-0.5,0.3c-0.1,0.1-0.3,0.3-0.3,0.5
		s-0.1,0.4-0.1,0.6v1.4h4V37z"/>
	<path class="st3" d="M34.1,43.9V30.8h1.1v13.1H34.1z"/>
	<path class="st3" d="M38.2,43.9V30.8h1.1v13.1H38.2z"/>
	<path class="st3" d="M47.8,43.9l-0.6-0.9c-0.3,0.3-0.6,0.6-1,0.8c-0.4,0.2-0.8,0.3-1.3,0.3h-0.3c-0.4,0-0.7-0.1-1.1-0.2
		c-0.3-0.1-0.6-0.3-0.9-0.6c-0.2-0.2-0.4-0.5-0.6-0.9c-0.1-0.3-0.2-0.7-0.2-1.1v-0.1c0-0.4,0.1-0.7,0.2-1.1c0.1-0.3,0.3-0.6,0.6-0.9
		c0.2-0.2,0.5-0.4,0.9-0.6c0.3-0.1,0.7-0.2,1.1-0.2h2.4V37c0-0.2,0-0.4-0.1-0.6s-0.2-0.4-0.3-0.5c-0.1-0.1-0.3-0.3-0.5-0.3
		c-0.2-0.1-0.4-0.1-0.6-0.1h-0.7c-0.2,0-0.4,0-0.6,0.1c-0.2,0.1-0.4,0.2-0.5,0.3c-0.1,0.1-0.3,0.3-0.3,0.5c-0.1,0.2-0.1,0.4-0.1,0.6
		v0.3L42,37.2v-0.1c0-0.4,0.1-0.7,0.2-1.1c0.1-0.3,0.3-0.6,0.6-0.9c0.2-0.2,0.5-0.4,0.9-0.6c0.3-0.1,0.7-0.2,1.1-0.2h0.7
		c0.4,0,0.7,0.1,1.1,0.2c0.3,0.1,0.6,0.3,0.9,0.6c0.2,0.2,0.4,0.5,0.6,0.9c0.1,0.3,0.2,0.7,0.2,1.1v6.8H47.8z M47.1,39.3h-2.4
		c-0.2,0-0.4,0-0.6,0.1c-0.2,0.1-0.4,0.2-0.5,0.4c-0.1,0.1-0.3,0.3-0.3,0.5c-0.1,0.2-0.1,0.4-0.1,0.6v0.4c0,0.2,0,0.4,0.1,0.6
		c0.1,0.2,0.2,0.4,0.3,0.5c0.1,0.1,0.3,0.3,0.5,0.3c0.2,0.1,0.4,0.1,0.6,0.1h0.7c0.2,0,0.4,0,0.6-0.1c0.2-0.1,0.4-0.2,0.5-0.3
		c0.1-0.1,0.3-0.3,0.3-0.5c0.1-0.2,0.1-0.4,0.1-0.6V39.3z"/>
	<path class="st3" d="M53.2,35.6c-0.2,0-0.4,0-0.6,0.1c-0.2,0.1-0.4,0.2-0.5,0.3c-0.1,0.1-0.3,0.3-0.3,0.5c-0.1,0.2-0.1,0.4-0.1,0.6
		v6.7h-1.1v-9.3h0.4l0.6,0.9c0.3-0.3,0.6-0.6,1-0.8c0.4-0.2,0.8-0.3,1.3-0.3h0.7v1.2H53.2z"/>
</g>
<linearGradient id="SVGID_3_" gradientUnits="userSpaceOnUse" x1="65.0629" y1="21.7756" x2="76.417" y2="21.7756" gradientTransform="matrix(1 0 0 -1 0 87.2756)">
	<stop  offset="0.2262" style="stop-color:#000000;stop-opacity:0"/>
	<stop  offset="0.761" style="stop-color:#FFFFFF"/>
</linearGradient>
<path class="st4" d="M75.3,63L75.3,63l-8.2-8.3l-2,2l6.2,6.2l0,0c0.7,0.7,1.1,1.6,1.1,2.6c0,1.1-0.5,2-1.2,2.7l-6.1,6.1l2,2l8.1-8.1
	c0.7-0.7,1.2-1.6,1.2-2.7C76.4,64.6,76,63.7,75.3,63z"/>
<path class="st3" d="M73.9,64.2c0.8,0,1.4,0.6,1.4,1.4S74.7,67,73.9,67l0,0H74l-27.8-1.5L73.9,64.2L73.9,64.2L73.9,64.2z"/>
</svg>
